<?xml version="1.0" encoding="utf-8"?>
<!-- Generator: Adobe Illustrator 24.1.2, SVG Export Plug-In . SVG Version: 6.00 Build 0)  -->
<svg version="1.1" id="Layer_1" xmlns="http://www.w3.org/2000/svg" xmlns:xlink="http://www.w3.org/1999/xlink" x="0px" y="0px"
	 viewBox="0 0 800 600" style="enable-background:new 0 0 800 600;" xml:space="preserve">
<style type="text/css">
	.st0{fill:#FC708E;}
</style>
<path class="st0" d="M600.3,76.8c-13-6.7-50.7-27.9-97.6-19c-67.2,12.6-97.8,75.6-101.3,83c-3.7-7.6-35.5-70.9-104.2-83
	c-46.6-8.2-84,11.9-97.6,19c-129.9,68.2-55.7,210.5-21,256.3c34.2,45.1,133,143.9,219.6,209.9c0.7,0.5,1.2,1,1.9,1.3
	c0.7-0.5,1.2-1,1.9-1.3c86.5-66,185.5-164.8,219.6-209.9C656,287.2,730.4,144.8,600.3,76.8z"/>
<g>
	<path d="M4.1,380.9c0.3-1.4,0.5-4.2,0.5-8.4c0-15.5,0.2-38.4,0.7-68.6s0.7-52,0.7-65.5c0-0.7,0.2-3.6,0.6-9l0.6-7.6
		c0-1.1,0.6-1.7,1.8-1.7c0.8,0,2,0.3,3.6,0.9c0.4,0.2,0.6,0.2,0.6,0.1c0,3.7,0,7-0.1,9.9s-0.1,6.3-0.1,9.9c0,10.2,0,19.3,0.1,27.4
		s0.1,17.2,0.1,27.4l-0.4,10.8c-0.2,5-0.4,8.4-0.4,10.3l0.2,10.7l0.2,10.7l-0.7,2.1l0.2-0.2c0,0.4,0,0.7-0.1,1
		c-0.1,0.2-0.1,0.6-0.1,1c0,1.4,0.2,2.6,0.7,3.6l-0.7,24.1v1.6c0,2.4,0.1,4.1,0.2,5c0.1,0.8,0.5,1.2,1.2,1.2c2.5,0,6.8,0.1,13,0.4
		l10.7,0.4h0.7c0.9,0,1.8,0.5,2.6,1.4s1.2,1.9,1.2,2.9c0,1.9-1.4,2.9-4.1,3.2c-5.7-0.2-12.7-0.2-20.9-0.2l0.5,0.2
		c-1,0-2.5,0.1-4.7,0.4c-1.9,0.3-3.4,0.5-4.7,0.5C5.9,386.7,4.5,384.8,4.1,380.9z"/>
	<path d="M73.1,380.9c-0.8,0-1.5,0-2.1,0.1c-0.7,0.1-1.4,0.1-2.1,0.1c-3.6,0-5.9-0.9-6.9-2.6c0-0.7,0.1-1.2,0.4-1.6
		c0.2-0.4,0.7-0.9,1.5-1.4l1.5-1.4h7.2l1-1c0-0.3,0.2-1.1,0.5-2.3c0.2-1.4,0.4-2.4,0.4-2.9c0-7-0.3-16.1-0.9-27.5
		c-0.7-12.9-1-22.1-1-27.5c0-5.1,0.2-14.9,0.6-29.5c0.4-14.5,0.6-24.2,0.6-29.2c0-11.8-0.4-21.5-1.2-29.1c-1.6-0.5-4.1-0.7-7.5-0.7
		l-2.9,0.2l-3.1,0.4c-3.2,0-4.8-1.4-4.8-4.3c0-0.7,0.7-1.3,2.2-2s2.7-1,3.8-1c5.5,0,11.8,0.3,19,1c4.3,0.3,8.2,1.1,11.5,2.3
		c2.9,1.1,4.4,2.5,4.4,4.3c0,0.3-0.2,1-0.6,2l-5.8,0.5c-1.3-1-3.7-1.5-7.2-1.5l-1.2,0.7c0.5,1.5,0.7,5.9,0.7,13.4
		c0,6.6-0.1,16.6-0.4,29.8c-0.2,13.3-0.4,23.3-0.4,30c0,7,0.3,16.1,0.9,27.5c0.6,11.5,0.9,20.7,0.9,27.6l-0.1,3.2
		c-0.1,1.2-0.1,2.7-0.1,4.5c0,3.9,0.2,6.3,0.7,7l-0.2,0.6c0,1.6,1.8,2.5,5.5,2.5c1.4,0,2.6,0,3.7-0.1s2.3-0.1,3.7-0.1
		c5,0,7.5,1.2,7.5,3.6c0,1.5-0.5,2.7-1.6,3.6s-2.4,1.4-3.9,1.4c-1.1,0-2.5-0.2-4.2-0.5c-1.8-0.2-3.2-0.4-4.2-0.4
		c-1.1,0-2.7,0.5-4.7,1.4c-1.8,1-3.2,1.5-4.3,1.5C76.1,383.4,73.8,382.6,73.1,380.9z"/>
	<path d="M142.4,379.8l-0.2-9.2l-0.2-9.1l0.2-4.4l0.2-4.4c0-2.2-0.3-4.2-1-6c0-13.6-0.8-34.4-2.5-62.5c-1.7-28.9-2.6-49-2.7-60.2
		c-10.7,0-17.7-0.3-20.9-0.9c-3.4-0.7-5.2-2-5.2-3.9c0.7-1.9,2.3-2.8,4.8-2.8c3.9,0,11.2,0.4,21.9,1.1c10.2,0.8,17.4,1.2,21.9,1.2
		l5.4-0.1l5.3-0.1c3,0,4.5,1.1,4.5,3.2c0,1.1-0.5,1.9-1.6,2.5s-2.4,0.9-3.9,0.9c-2.1,0-5.7-0.2-10.7-0.5s-8.6-0.5-10.8-0.5
		c-0.5,0-0.8,0.2-1,0.7c-0.2,0.8-0.2,2.4-0.2,4.8c0,16.4,1,41,2.9,73.8c2,32.7,2.9,57.3,2.9,73.8c0,1.1-0.7,2.2-2.2,3.3
		c-1.5,1-2.9,1.5-4.2,1.5L142.4,379.8z"/>
	<path d="M217.2,379.8l-0.2-9.2l-0.2-9.1l0.2-4.4l0.2-4.4c0-2.2-0.3-4.2-1-6c0-13.6-0.8-34.4-2.5-62.5c-1.7-28.9-2.6-49-2.7-60.2
		c-10.7,0-17.7-0.3-20.9-0.9c-3.4-0.7-5.2-2-5.2-3.9c0.7-1.9,2.3-2.8,4.8-2.8c3.9,0,11.2,0.4,21.9,1.1c10.2,0.8,17.4,1.2,21.9,1.2
		l5.4-0.1l5.3-0.1c3,0,4.5,1.1,4.5,3.2c0,1.1-0.5,1.9-1.6,2.5s-2.4,0.9-3.9,0.9c-2.1,0-5.7-0.2-10.7-0.5s-8.6-0.5-10.8-0.5
		c-0.5,0-0.8,0.2-1,0.7c-0.2,0.8-0.2,2.4-0.2,4.8c0,16.4,1,41,2.9,73.8c2,32.7,2.9,57.3,2.9,73.8c0,1.1-0.7,2.2-2.2,3.3
		c-1.5,1-2.9,1.5-4.2,1.5L217.2,379.8z"/>
	<path d="M275.8,380.9c0.3-1.4,0.5-4.2,0.5-8.4c0-15.5,0.2-38.4,0.7-68.6s0.7-52,0.7-65.5c0-0.7,0.2-3.6,0.6-9l0.6-7.6
		c0-1.1,0.6-1.7,1.8-1.7c0.8,0,2,0.3,3.6,0.9c0.4,0.2,0.6,0.2,0.6,0.1c0,3.7,0,7-0.1,9.9s-0.1,6.3-0.1,9.9c0,10.2,0,19.3,0.1,27.4
		s0.1,17.2,0.1,27.4l-0.4,10.8c-0.2,5-0.4,8.4-0.4,10.3l0.2,10.7l0.2,10.7l-0.7,2.1l0.2-0.2c0,0.4,0,0.7-0.1,1
		c-0.1,0.2-0.1,0.6-0.1,1c0,1.4,0.2,2.6,0.7,3.6l-0.7,24.1v1.6c0,2.4,0.1,4.1,0.2,5c0.1,0.8,0.5,1.2,1.2,1.2c2.5,0,6.8,0.1,13,0.4
		l10.7,0.4h0.7c0.9,0,1.8,0.5,2.6,1.4c0.8,0.9,1.2,1.9,1.2,2.9c0,1.9-1.4,2.9-4.1,3.2c-5.7-0.2-12.7-0.2-20.9-0.2l0.5,0.2
		c-1,0-2.5,0.1-4.7,0.4c-1.9,0.3-3.4,0.5-4.7,0.5C277.6,386.7,276.2,384.8,275.8,380.9z"/>
	<path d="M337.7,381.4c0-1.1,0-2.2,0.1-3.2s0.1-2,0.1-3.2l-0.9-1c1.2-3.4,1.8-6.8,1.8-10.3c0-2.9-0.2-8.4-0.6-16.6
		s-0.6-13.7-0.6-16.6c0-9.5,0.3-22.1,0.9-37.8c0.6-15.7,0.9-28.4,0.9-37.9c0-4.1-0.2-9.1-0.5-15.1c-0.3-5.9-0.5-10.9-0.5-15
		c0-2.5,0.6-4.3,1.7-5.4c1.1-1.1,3-1.7,5.6-1.7c1.9,0,3.2,0.5,4.1,1.6c1.1,0.2,3.5,0.6,7.4,1c4.2,0.5,7.8,1.2,10.9,2.2
		s4.7,2.3,4.7,3.8c0,1.6-1.6,3.2-4.7,5c-9.2-3-16-4.6-20.4-4.8l-1.2,1.5c0.2,3.1,0.2,6.7,0.2,10.8c0,5.2-0.2,11.7-0.5,19.5
		c-0.3,7.8-0.5,14.3-0.5,19.5c0,4.7,1.2,7,3.6,7l4.2-0.2c2.5-0.2,3.9-0.2,4.3-0.2c6.5,0,9.7,1.5,9.8,4.5c0,1.8-0.5,3.3-1.4,4.6
		c-0.9,1.3-2.1,1.9-3.7,1.9c-2.8,0-4.7-0.7-5.8-2l-8.2-1.2h-1.1l-1.2,1.2v0.7c0.3,3.8,0.5,10.5,0.5,19.9l-0.2,17.8l-0.2,17.9
		c0,6.6,0.2,13.2,0.7,20c0.2,3.8,1.1,6.4,2.6,7.7c1.5,1.3,4.2,1.9,8.2,1.9l4.5-0.2l4.8-0.2c4.9,0,7.4,1.1,7.4,3.3
		c0,3-3.6,4.5-10.9,4.5h-20.8C339.6,386.7,337.9,384.9,337.7,381.4z"/>
	<path d="M458.9,384.5c-2.6,1.6-5.5,2.3-8.6,2.3c-1.9,0-3.5-0.9-5-2.6c-1.4-1.7-2.1-3.6-2.1-5.6c0-13.3,0.5-32.1,1.6-56.2
		c1.1-24,1.6-42.7,1.6-56.1v-1.8c-1-10.5-1.5-18.3-1.5-23.6c0-15.9,2.9-23.8,8.7-23.8c1.7,0,3.2,0.6,4.5,1.8s1.9,2.7,1.9,4.4
		c0,2.4-0.3,5.6-0.9,9.6s-0.9,7.2-0.9,9.6c0,6.7,0.1,16.8,0.4,30.2c0.2,13.3,0.4,23.4,0.4,30.2c-1,2.3-1.5,5.8-1.5,10.6v3.1
		c0,5.5-0.2,12.1-0.5,19.9s-0.5,14.5-0.5,20.1c0,11.5,2.8,17.3,8.5,17.3l4.7-0.2c1.6-0.1,3.5-0.1,5.8-0.1c9,0,13.5,2.5,13.5,7.4
		c0,1.7-0.8,3.2-2.3,4.4c-1.5,1.2-3.3,2-5.3,2.2C475.2,385.5,467.7,384.5,458.9,384.5z"/>
	<path d="M527,384c-3.7-2.7-6.6-6.5-8.8-11.3c-4.7-9.9-7.8-21-9.2-33.4c-1.4-11.5-2.1-22.4-2.1-32.8c0-2,0-3.7,0.1-5
		s0.1-2.8,0.1-4.5c0-0.8-0.1-1.2-0.4-1.2v-4.5c0-1.3,0.1-4.9,0.2-10.8c0-2.6,0-4.9,0.1-6.8c0.1-4.5,0.3-8.5,0.6-12
		c0.3-3.5,0.8-8.1,1.4-13.8c0.5-4.6,1.2-8.7,2.1-12.2c0.9-3.6,2.1-7.3,3.6-11.1c1.2-3.4,2.8-5.9,4.7-7.7s4-2.6,6.3-2.6
		c6.7,0,12.8,1.2,18.2,3.7s9.9,5.9,13.5,10.2c3.4,4.2,6.2,9.3,8.5,15.4c2.3,6.1,4,12.6,5,19.6c1,6.9,1.5,14.3,1.5,22.4v1.8l0.2,14.2
		l0.2,14.2c0,48.2-11.2,72.3-33.5,72.3C534.8,388,530.7,386.7,527,384z M546.5,374c2.5-2.4,4.5-5.7,6-10c2.9-8.4,4.9-17.6,5.8-27.5
		c0.7-8.8,1.1-16.3,1.1-22.4c0-7.1-0.5-16.9-1.6-29.5c-1.1-13.5-1.7-23.2-1.7-29.1v-4.4c-0.2-4.1-1.1-8-2.9-11.6s-4.3-6.5-7.4-8.7
		s-6.6-3.3-10.4-3.3c-5.7,0-9.5,3.2-11.4,9.7c-0.9,3-1.5,6.1-1.8,9.1c-0.3,3.1-0.5,6.7-0.5,10.9c0,3.2,0,5.9,0.1,8.1
		s0.1,4.5,0.1,6.8c0,2-0.2,5.9-0.6,11.7c-0.4,5.7-0.6,9.6-0.6,11.5c0,6.1,0.3,15,1,26.9c0.7,12.6,2.3,24.8,4.9,36.7
		c1.2,5.8,2.9,10.4,5,13.7c2.1,3.3,4.4,5,6.9,5C541.3,377.6,544,376.4,546.5,374z"/>
	<path d="M619.9,382.5c0-19.2-1.8-39.2-5.4-59.7c-3.6-20.6-9.3-45.8-16.9-75.7c-0.6-2.2-1.4-4.8-2.3-7.7c-3-9.1-4.5-15.1-4.5-17.9
		c0-1.6,0.6-2.9,1.9-4.1c1.3-1.1,2.7-1.7,4.2-1.7c2.4,0,4.7,2.1,7,6.4c2.1,3.9,4.1,9.3,6,16.1s3.9,15.2,6,25.2
		c2.5,12.1,5.4,30,8.7,53.8c0.8,5.6,1.8,13.1,3.1,22.4c0.8,6.8,1.4,11.3,1.7,13.5c3.8-18.8,8.3-45.6,13.6-80.2
		c5-32.9,8.1-53.2,9.5-60.9h5.6c1.5,0,2.8,0.6,4,1.7c1.2,1.1,1.8,2.4,1.8,3.9c0,5.9-0.7,12.3-2.1,19.2c-1.4,6.9-3.5,15.3-6.3,25.2
		c-2.3,8.4-3.8,14.6-4.5,18.7c-0.7,4.1-1.5,10.8-2.2,20.1c-0.8,10.6-1.7,20.1-2.7,28.7s-2.3,17.2-3.8,25.8
		c-1.7,9.7-4.1,17.3-7.1,22.8s-6.5,8.3-10.5,8.3L619.9,382.5z"/>
	<path d="M694.6,384.4c-1.8-1.5-2.7-3.3-2.8-5.5v-6.6c0-1.8,0-3.5-0.1-5l-0.2-5.3c0-2.7-0.2-8.1-0.6-16.1
		c-0.4-7.9-0.6-13.3-0.6-16.1c0-9.3,0.3-21.5,0.9-36.7c0.6-15.2,0.9-27.5,0.9-36.7c0-1.8-0.2-5.4-0.6-10.7
		c-0.5-4.7-0.7-8.2-0.7-10.6c0-11.9,3.5-17.8,10.6-17.8c3.2,0,7.2,0.5,12.1,1.5c4.9,1,9.1,2.4,12.6,4.1c3.6,1.7,5.3,3.5,5.3,5.6
		c0,1.7-0.7,3.3-2.1,4.6c-1.4,1.4-3.2,2.4-5.3,3.3c-7.7-2.5-14-4.1-19-4.8c0.2,3.5,0.4,7.1,0.4,10.8c0,4.9-0.2,10.9-0.5,18.1
		c-0.4,8.8-0.6,14.9-0.6,18.1l0.7,3.9l4.1-0.2c1.4-0.1,3-0.1,4.9-0.1c8.1,0,12.2,2.3,12.2,6.9c0,1.8-0.8,3.4-2.3,4.7
		c-1.5,1.4-3.4,2-5.7,2c-2.5,0-4.8-0.2-7.1-0.5h-6.4c0.5,6.4,0.7,12.7,0.7,19c0,6.1-0.2,13.6-0.5,22.7c-0.4,11.3-0.6,18.9-0.6,22.8
		c0,9.4,0.2,14.1,0.5,14.1l8.2-0.4l10.3-0.2c6.4,0,9.6,2,9.6,6.1c0,2.4-1,4.2-3.1,5.4s-4.6,1.8-7.7,1.8h-21.2
		C698.4,386.7,696.3,385.9,694.6,384.4z"/>
	<path d="M757.1,383.6c-2-1.7-3.2-3.8-3.6-6.4l2.8-4.3c2.5,0.5,4,0.8,4.7,1c2.3,0.6,4.2,0.9,5.8,0.9c3.1,0,5.9-1.4,8.2-4.1
		c2.4-2.7,4.2-6.2,5.4-10.6c2.2-7.9,3.3-15.2,3.3-21.7c0-5.6-1-11.4-2.9-17.4s-4.5-11.8-7.7-17.5l-2.3-4.1c-3.4-5.9-6.3-11-8.5-15.4
		c-2.2-4.4-4.1-9.1-5.6-14.2c-2-6.4-3.1-13-3.1-19.8c0-7.6,1.7-15.3,5.2-23c1.7-4,4.1-7.2,7.2-9.6c3.1-2.4,6.5-3.6,10.4-3.6
		c3.1,0,6,1,8.5,2.9c2.6,1.9,3.9,4.3,3.9,7.1c0,1.5-0.6,2.6-1.8,3.5c-1.2,0.9-2.7,1.3-4.3,1.3c-1.8,0-3.6-0.5-5.3-1.5
		c-1.9,0.1-3.6,1-5.2,2.8c-1.6,1.8-2.8,4.1-3.7,7c-1.7,5.5-2.6,10.3-2.6,14.5c0,4.8,0.7,9.7,2.1,14.7s3.3,9.5,5.7,13.5
		c6.1,10.9,11,19.8,14.5,26.6c2.3,4.6,4.2,10,5.6,16.2c1.4,6.2,2.1,12.5,2.1,18.9c0,10.2-2.3,19.9-7,29.1c-2.4,4.7-5.7,8.5-9.9,11.4
		c-4.3,2.8-9,4.3-14.2,4.4v0.6C761.8,386.3,759.2,385.2,757.1,383.6z"/>
</g>
</svg>
